<svg version="1.1" id="Layer_1" xmlns="http://www.w3.org/2000/svg" xmlns:xlink="http://www.w3.org/1999/xlink" x="0px" y="0px"
	 width="100%" viewBox="0 0 1200 1200" enable-background="new 0 0 1200 1200" xml:space="preserve">
<path fill="#F0914D" opacity="1.000000" stroke="none" 
	d="
M556.000000,1201.000000 
	C370.666656,1201.000000 185.833328,1201.000000 1.000000,1201.000000 
	C1.000000,801.000000 1.000000,401.000000 1.000000,1.000000 
	C401.000000,1.000000 801.000000,1.000000 1201.000000,1.000000 
	C1201.000000,401.000000 1201.000000,801.000000 1201.000000,1201.000000 
	C986.166687,1201.000000 771.333313,1201.000000 556.000000,1201.000000 
M553.680969,341.175018 
	C515.773010,358.401398 477.863556,375.624512 439.957733,392.855591 
	C421.610748,401.195740 403.227234,409.457550 384.947479,417.942749 
	C377.058502,421.604706 373.203491,428.943268 374.554291,436.577423 
	C376.055603,445.062225 381.685486,450.370117 390.460663,451.307098 
	C393.597076,451.641968 396.821594,451.896698 399.933746,451.546600 
	C405.155731,450.959167 406.308350,453.114807 406.280914,458.042572 
	C406.084198,493.373352 406.179596,528.705750 406.164154,564.037598 
	C406.163361,565.820557 405.995422,567.603394 405.874298,569.999084 
	C403.379364,569.999084 401.258057,569.999084 399.136749,569.999084 
	C331.306213,569.999146 263.475647,569.991150 195.645111,570.006592 
	C183.200882,570.009399 176.013382,577.094421 176.010757,589.440063 
	C175.990219,686.102722 175.989868,782.765442 176.011505,879.428101 
	C176.014313,891.964417 183.017746,898.990356 195.451477,898.992126 
	C300.780487,899.007080 406.109467,899.002075 511.438477,898.988831 
	C513.199951,898.988586 514.961487,898.808289 517.122131,898.690247 
	C517.122131,896.161072 517.122070,894.183228 517.122070,892.205383 
	C517.122375,875.039429 517.260620,857.871521 517.027405,840.708740 
	C516.968201,836.350525 518.152954,835.043640 522.612793,835.056519 
	C574.943481,835.207947 627.274963,835.197144 679.605835,835.071228 
	C683.761963,835.061218 685.008667,836.282959 684.960632,840.429077 
	C684.758179,857.926025 684.865356,875.426697 684.890442,892.925964 
	C684.893188,894.842163 685.095947,896.758118 685.224670,899.000916 
	C687.817688,899.000916 689.799500,899.000977 691.781372,899.000977 
	C796.277100,899.001038 900.772766,899.002869 1005.268494,898.998718 
	C1019.282532,898.998169 1025.993652,892.255127 1025.994751,878.138428 
	C1026.002441,782.475708 1026.002319,686.812927 1025.995117,591.150208 
	C1025.994141,576.610596 1019.437988,570.001648 1005.057739,570.000854 
	C937.560547,569.997009 870.063293,569.999084 802.566101,569.999084 
	C800.475708,569.999084 798.385254,569.999084 795.824036,569.999084 
	C795.824036,567.187866 795.824097,565.214172 795.824097,563.240479 
	C795.824097,538.241516 795.823547,513.242554 795.824341,488.243561 
	C795.824707,477.577332 795.929443,466.909607 795.771057,456.245758 
	C795.719971,452.806305 796.850708,451.419189 800.356995,451.579895 
	C804.009460,451.747223 807.698608,451.676971 811.342102,451.365173 
	C820.238831,450.603699 826.388672,444.960785 827.776672,436.558502 
	C829.055847,428.815125 824.666321,421.310333 816.801514,417.737061 
	C752.505493,388.524841 688.228333,359.271027 623.876465,330.182373 
	C619.953308,328.409027 618.536072,326.341522 618.553772,322.006317 
	C618.721375,280.842010 618.664673,239.676758 618.629272,198.511810 
	C618.626892,195.691132 618.528503,192.826096 618.039246,190.058685 
	C616.653625,182.221512 609.885620,176.401031 602.030090,176.018677 
	C593.983765,175.627045 586.258728,180.404068 584.541016,188.082291 
	C583.446899,192.973053 581.057983,193.476639 576.918823,193.454910 
	C550.420654,193.315765 523.921387,193.364410 497.422516,193.404480 
	C494.096558,193.409515 490.736176,193.480026 487.452026,193.945526 
	C478.102661,195.270721 472.266327,201.592300 472.193695,210.828812 
	C472.045563,229.660172 472.086426,248.493881 472.185516,267.325897 
	C472.224640,274.762115 475.775818,280.285583 482.870514,282.591919 
	C487.052979,283.951538 491.662659,284.504669 496.085876,284.532745 
	C522.916992,284.702942 549.749817,284.612671 576.582031,284.620789 
	C583.328430,284.622833 583.338074,284.641968 583.343811,291.573792 
	C583.352356,301.906708 583.153320,312.244995 583.442505,322.569794 
	C583.554626,326.573792 582.120544,328.509277 578.520935,330.008209 
	C570.375977,333.400055 562.416016,337.236145 553.680969,341.175018 
M511.500000,1026.000000 
	C675.623901,1026.000000 839.747803,1026.000244 1003.871704,1025.997559 
	C1005.870789,1025.997559 1007.880127,1026.085571 1009.867188,1025.921265 
	C1019.202576,1025.149902 1026.110229,1017.481445 1025.986328,1008.117004 
	C1025.866821,999.077759 1018.809753,991.673035 1009.657410,991.046814 
	C1007.832275,990.922058 1005.993225,990.986023 1004.160583,990.986023 
	C735.397156,990.983948 466.633759,990.983887 197.870331,990.987000 
	C195.871307,990.987000 193.860687,990.901001 191.875244,991.077576 
	C182.813980,991.883057 175.957993,999.491516 176.008560,1008.588257 
	C176.066269,1018.967773 183.915009,1025.992065 195.581924,1025.993286 
	C300.554626,1026.004639 405.527313,1025.999878 511.500000,1026.000000 
M279.500000,959.139526 
	C520.435059,959.139526 761.370178,959.139587 1002.305237,959.137695 
	C1004.637817,959.137695 1006.973999,959.191467 1009.302246,959.084229 
	C1018.154358,958.676697 1025.059448,952.129089 1025.918945,943.394897 
	C1026.767212,934.776306 1021.184387,926.731934 1012.643494,924.770630 
	C1009.768433,924.110352 1006.699646,924.117432 1003.719360,924.117126 
	C738.457458,924.089966 473.195557,924.091919 207.933640,924.091858 
	C203.268906,924.091858 198.478165,923.426880 193.975357,924.280701 
	C189.587509,925.112610 184.896179,926.715271 181.408386,929.380310 
	C175.839737,933.635376 174.461655,941.587280 177.198029,948.077454 
	C180.204437,955.208191 185.698181,959.081726 193.523071,959.098633 
	C221.848602,959.159668 250.174347,959.133118 279.500000,959.139526 
z"/>
<path fill="#F3E1D5" opacity="1.000000" stroke="none" 
	d="
M554.030884,341.033264 
	C562.416016,337.236145 570.375977,333.400055 578.520935,330.008209 
	C582.120544,328.509277 583.554626,326.573792 583.442505,322.569794 
	C583.153320,312.244995 583.352356,301.906708 583.343811,291.573792 
	C583.338074,284.641968 583.328430,284.622833 576.582031,284.620789 
	C549.749817,284.612671 522.916992,284.702942 496.085876,284.532745 
	C491.662659,284.504669 487.052979,283.951538 482.870514,282.591919 
	C475.775818,280.285583 472.224640,274.762115 472.185516,267.325897 
	C472.086426,248.493881 472.045563,229.660172 472.193695,210.828812 
	C472.266327,201.592300 478.102661,195.270721 487.452026,193.945526 
	C490.736176,193.480026 494.096558,193.409515 497.422516,193.404480 
	C523.921387,193.364410 550.420654,193.315765 576.918823,193.454910 
	C581.057983,193.476639 583.446899,192.973053 584.541016,188.082291 
	C586.258728,180.404068 593.983765,175.627045 602.030090,176.018677 
	C609.885620,176.401031 616.653625,182.221512 618.039246,190.058685 
	C618.528503,192.826096 618.626892,195.691132 618.629272,198.511810 
	C618.664673,239.676758 618.721375,280.842010 618.553772,322.006317 
	C618.536072,326.341522 619.953308,328.409027 623.876465,330.182373 
	C688.228333,359.271027 752.505493,388.524841 816.801514,417.737061 
	C824.666321,421.310333 829.055847,428.815125 827.776672,436.558502 
	C826.388672,444.960785 820.238831,450.603699 811.342102,451.365173 
	C807.698608,451.676971 804.009460,451.747223 800.356995,451.579895 
	C796.850708,451.419189 795.719971,452.806305 795.771057,456.245758 
	C795.929443,466.909607 795.824707,477.577332 795.824341,488.243561 
	C795.823547,513.242554 795.824097,538.241516 795.824097,563.240479 
	C795.824097,565.214172 795.824036,567.187866 795.824036,569.999084 
	C798.385254,569.999084 800.475708,569.999084 802.566101,569.999084 
	C870.063293,569.999084 937.560547,569.997009 1005.057739,570.000854 
	C1019.437988,570.001648 1025.994141,576.610596 1025.995117,591.150208 
	C1026.002319,686.812927 1026.002441,782.475708 1025.994751,878.138428 
	C1025.993652,892.255127 1019.282532,898.998169 1005.268494,898.998718 
	C900.772766,899.002869 796.277100,899.001038 691.781372,899.000977 
	C689.799500,899.000977 687.817688,899.000916 685.224670,899.000916 
	C685.095947,896.758118 684.893188,894.842163 684.890442,892.925964 
	C684.865356,875.426697 684.758179,857.926025 684.960632,840.429077 
	C685.008667,836.282959 683.761963,835.061218 679.605835,835.071228 
	C627.274963,835.197144 574.943481,835.207947 522.612793,835.056519 
	C518.152954,835.043640 516.968201,836.350525 517.027405,840.708740 
	C517.260620,857.871521 517.122375,875.039429 517.122070,892.205383 
	C517.122070,894.183228 517.122131,896.161072 517.122131,898.690247 
	C514.961487,898.808289 513.199951,898.988586 511.438477,898.988831 
	C406.109467,899.002075 300.780487,899.007080 195.451477,898.992126 
	C183.017746,898.990356 176.014313,891.964417 176.011505,879.428101 
	C175.989868,782.765442 175.990219,686.102722 176.010757,589.440063 
	C176.013382,577.094421 183.200882,570.009399 195.645111,570.006592 
	C263.475647,569.991150 331.306213,569.999146 399.136749,569.999084 
	C401.258057,569.999084 403.379364,569.999084 405.874298,569.999084 
	C405.995422,567.603394 406.163361,565.820557 406.164154,564.037598 
	C406.179596,528.705750 406.084198,493.373352 406.280914,458.042572 
	C406.308350,453.114807 405.155731,450.959167 399.933746,451.546600 
	C396.821594,451.896698 393.597076,451.641968 390.460663,451.307098 
	C381.685486,450.370117 376.055603,445.062225 374.554291,436.577423 
	C373.203491,428.943268 377.058502,421.604706 384.947479,417.942749 
	C403.227234,409.457550 421.610748,401.195740 439.957733,392.855591 
	C477.863556,375.624512 515.773010,358.401398 554.030884,341.033264 
M643.979614,738.482544 
	C644.011963,736.317993 644.104614,734.152405 644.065735,731.989136 
	C643.927673,724.310303 642.662231,722.762024 635.268188,721.062927 
	C611.951660,715.704956 591.664856,729.489624 588.370300,752.929382 
	C585.699646,771.930542 596.637146,784.361389 615.794617,784.099548 
	C617.126160,784.081360 618.462646,784.139832 619.788574,784.046509 
	C623.437439,783.789612 624.908569,785.738708 623.857544,788.917175 
	C622.153381,794.070679 620.639404,799.509644 617.752869,803.996765 
	C613.540466,810.544922 608.050659,811.492554 600.686890,808.463196 
	C599.149414,807.830688 597.580627,806.685852 596.059753,806.738953 
	C593.764648,806.819031 590.789124,807.065552 589.417419,808.499207 
	C588.002319,809.978333 587.171448,813.331787 587.869324,815.197998 
	C588.829468,817.765442 591.062561,820.397278 593.455200,821.794617 
	C603.478882,827.648743 613.499146,827.112915 622.932678,820.268188 
	C634.778870,811.672913 639.326538,799.036682 640.757446,785.291504 
	C642.342346,770.067993 642.932495,754.740845 643.979614,738.482544 
M618.661011,590.500000 
	C618.642822,583.671997 618.913879,576.828125 618.540344,570.019592 
	C617.940857,559.093689 610.336121,551.751526 600.431152,552.018066 
	C590.797180,552.277283 583.561584,559.878906 583.412537,570.590210 
	C583.192322,586.408630 583.296570,602.232910 583.392883,618.053894 
	C583.427551,623.757690 585.145630,628.928833 589.762512,632.668518 
	C595.123596,637.010986 601.185852,638.140808 607.562073,635.452393 
	C614.946716,632.338806 618.386475,626.273010 618.575745,618.478394 
	C618.793945,609.490234 618.648010,600.493164 618.661011,590.500000 
M593.084900,437.371826 
	C587.200256,440.570312 583.665283,445.567719 583.570801,452.187622 
	C583.326294,469.316345 583.115112,486.463562 583.660950,503.578796 
	C583.981812,513.640259 591.385498,520.063660 600.800354,520.107910 
	C610.497314,520.153503 618.022156,513.701416 618.352234,503.444427 
	C618.897522,486.495667 619.064026,469.493500 618.342834,452.558441 
	C617.775879,439.244995 606.430786,432.600159 593.084900,437.371826 
M291.276001,796.500244 
	C291.272980,792.004578 291.336761,787.507629 291.253693,783.013428 
	C291.052917,772.152344 283.854248,764.316833 274.054993,764.205139 
	C264.097443,764.091675 256.371582,772.096069 256.267090,783.065735 
	C256.118042,798.715881 256.101074,814.369812 256.273315,830.019470 
	C256.398621,841.404297 263.639832,849.003235 273.854004,848.982788 
	C284.151276,848.962158 291.141144,841.412537 291.248810,829.968567 
	C291.350616,819.146606 291.274445,808.322998 291.276001,796.500244 
M513.551880,633.051025 
	C519.287781,637.325867 525.482971,638.084839 531.881714,634.932739 
	C538.688354,631.579590 541.685120,625.676636 541.839417,618.282349 
	C541.964539,612.286011 541.878418,606.285156 541.874756,600.286316 
	C541.868530,590.121704 542.118835,579.947937 541.768494,569.795044 
	C541.408630,559.366150 533.564026,551.851135 523.920105,552.017700 
	C514.268311,552.184387 506.930817,559.984985 506.872192,570.425903 
	C506.782379,586.422363 506.880493,602.419800 506.835175,618.416626 
	C506.819153,624.076233 508.709351,628.831604 513.551880,633.051025 
M868.947449,787.566895 
	C868.906921,785.237122 869.038818,782.889282 868.795837,780.580811 
	C867.774536,770.877625 859.830139,763.780334 850.624573,764.222595 
	C841.299866,764.670593 834.036804,772.243896 833.962036,782.009277 
	C833.837097,798.326111 833.948975,814.644592 833.918701,830.962280 
	C833.908508,836.445862 835.803406,841.104309 839.933533,844.678284 
	C845.340942,849.357422 851.613892,850.393921 858.115295,847.600952 
	C865.231934,844.543762 868.787720,838.654480 868.882141,831.006592 
	C869.056763,816.855530 868.941772,802.700867 868.947449,787.566895 
M368.082092,828.371887 
	C368.075592,812.884827 368.201691,797.396179 368.014954,781.911255 
	C367.894714,771.939697 360.155640,764.260864 350.698425,764.204956 
	C341.229919,764.148987 333.267975,771.760986 333.128326,781.679810 
	C332.896210,798.162781 332.998077,814.651672 333.090240,831.137268 
	C333.122681,836.932678 335.378326,841.871460 340.081573,845.420044 
	C345.622864,849.601135 351.775726,850.312256 357.962280,847.306885 
	C365.331329,843.727173 368.424530,837.413330 368.082092,828.371887 
M695.152344,615.408691 
	C695.141724,600.095581 695.284790,584.780273 695.065002,569.470154 
	C694.925171,559.729858 687.306458,552.178345 678.079285,552.017578 
	C668.580566,551.852173 660.435242,559.286743 660.252991,569.196350 
	C659.943970,586.001343 659.965515,602.820068 660.273743,619.625244 
	C660.413757,627.259338 664.456604,632.958984 671.732056,635.683716 
	C678.399109,638.180542 684.556458,636.704468 689.758850,631.858521 
	C694.239258,627.685120 695.487610,622.279602 695.152344,615.408691 
M943.705750,774.098938 
	C938.612793,765.960449 932.057312,762.816895 924.094421,764.694641 
	C917.212646,766.317322 911.110962,772.495972 910.997925,779.363770 
	C910.699219,797.518250 910.634644,815.687134 911.037659,833.837830 
	C911.218994,842.003601 918.813354,848.564514 926.980774,848.956665 
	C937.901428,849.480896 945.550537,841.764343 945.697266,829.572693 
	C945.881775,814.244812 945.826721,798.911926 945.658203,783.583618 
	C945.625977,780.653931 944.588074,777.735413 943.705750,774.098938 
M363.922119,726.341431 
	C365.306396,722.174316 367.758453,718.039307 367.884796,713.834351 
	C368.359070,698.051147 368.153503,682.244507 368.046661,666.447754 
	C367.972076,655.419006 360.901337,647.949402 350.791534,647.890381 
	C340.431305,647.829895 333.133331,655.402100 333.069672,666.541931 
	C332.980347,682.172668 333.054871,697.804260 333.043549,713.435486 
	C333.037720,721.481750 336.155762,727.908508 343.737579,731.012634 
	C350.939758,733.961365 357.780090,732.603760 363.922119,726.341431 
M266.988495,649.112183 
	C260.753204,652.065247 256.641266,657.002808 256.503296,663.816406 
	C256.149261,681.299377 255.968185,698.811951 256.620453,716.279114 
	C256.999939,726.441284 265.020325,732.795715 274.705811,732.389648 
	C284.237671,731.989990 291.092651,724.820496 291.202759,714.571838 
	C291.376434,698.410339 291.412964,682.243774 291.210846,666.083008 
	C291.042664,652.637634 280.854584,645.308411 266.988495,649.112183 
M661.902344,445.624512 
	C661.319763,448.036194 660.254639,450.443481 660.232422,452.860291 
	C660.080750,469.356750 659.961731,485.858032 660.212341,502.351990 
	C660.372803,512.915344 667.906799,520.160767 677.879822,520.105164 
	C687.904724,520.049255 695.017700,512.753296 695.106018,502.030029 
	C695.237793,486.033112 695.202087,470.034027 695.118652,454.036469 
	C695.072083,445.093567 690.084961,438.123718 682.635193,436.167572 
	C674.327087,433.986053 667.325928,436.995026 661.902344,445.624512 
M919.718323,649.937500 
	C913.638611,653.369751 910.754578,658.651123 910.748962,665.557373 
	C910.735718,681.886108 910.630493,698.216003 910.789429,714.543213 
	C910.889709,724.853149 917.649109,731.980103 927.205322,732.384949 
	C936.835327,732.792908 944.957642,726.394653 945.337585,716.296814 
	C945.988281,699.000488 946.188782,681.628418 945.311951,664.352417 
	C944.633423,650.982361 932.915283,644.638489 919.718323,649.937500 
M506.843842,489.498901 
	C506.847504,493.659912 506.786316,497.822144 506.867523,501.981659 
	C507.073822,512.553101 513.830933,519.882507 523.490662,520.096252 
	C533.785034,520.324097 541.564270,513.193848 541.765930,502.479218 
	C542.072815,486.174011 542.062500,469.855103 541.776001,453.549225 
	C541.585449,442.707428 533.954224,435.515503 523.722473,435.699310 
	C513.754517,435.878387 506.949646,443.202606 506.868652,454.046326 
	C506.782898,465.530060 506.845703,477.014954 506.843842,489.498901 
M865.166260,725.599915 
	C866.415771,722.043457 868.660522,718.510254 868.744385,714.926575 
	C869.129883,698.436340 869.136719,681.927917 868.830139,665.434326 
	C868.634521,654.913208 860.950134,647.760559 850.949097,647.895996 
	C840.976990,648.031006 834.004272,655.422424 833.944153,666.197754 
	C833.855896,682.030151 833.958313,697.863525 833.903442,713.696228 
	C833.875244,721.845520 837.242920,727.873291 844.763367,731.205872 
	C851.354065,734.126526 858.738892,732.157593 865.166260,725.599915 
M710.573181,735.099121 
	C707.181213,726.913025 701.396545,721.325623 692.749817,719.017090 
	C669.892090,712.914551 655.404297,729.838379 652.030762,747.472839 
	C650.082153,757.658325 650.841858,767.813660 659.993896,774.643311 
	C670.603638,782.560730 682.372131,784.651733 694.670654,778.410461 
	C710.337585,770.459778 716.482056,754.066895 710.573181,735.099121 
M520.808411,745.542603 
	C520.524414,749.175598 519.922791,752.816956 520.017639,756.440063 
	C520.273254,766.204468 524.527588,773.404419 533.560242,777.939148 
	C552.439026,787.416809 574.615906,778.251343 580.280762,757.835144 
	C583.471863,746.334229 581.678650,735.168823 573.293274,726.163452 
	C565.066223,717.328125 554.216736,715.951782 543.334595,719.193298 
	C530.947571,722.883057 524.740845,732.962891 520.808411,745.542603 
M438.226105,835.146423 
	C432.649811,835.146423 427.073486,835.146423 420.515625,835.146423 
	C421.897949,832.776062 422.635437,831.355286 423.515198,830.028809 
	C428.486542,822.533325 432.847900,814.510132 438.649231,807.719299 
	C445.885040,799.249268 445.595551,789.714172 444.652740,779.958008 
	C443.735229,770.463379 435.580780,763.776306 426.485565,764.221497 
	C417.373535,764.667603 410.040131,772.175781 409.959930,781.629639 
	C409.818604,798.288452 409.695587,814.955383 410.115845,831.604980 
	C410.209717,835.323486 411.934021,839.417847 414.047119,842.577087 
	C417.861725,848.280212 425.695984,850.300232 432.378510,848.257019 
	C438.720001,846.318115 442.860718,841.659424 443.497314,835.445679 
	C442.038422,835.345764 440.588623,835.246521 438.226105,835.146423 
M758.006226,799.044189 
	C765.779358,810.709167 773.552490,822.374207 782.107056,835.211914 
	C773.188049,835.211914 765.817261,835.211914 758.019775,835.211914 
	C758.299255,836.710266 758.321533,837.529175 758.605408,838.244263 
	C761.572327,845.719177 769.526794,850.129761 777.569336,848.803650 
	C785.375732,847.516479 791.823608,840.652405 791.940796,832.524658 
	C792.187744,815.386841 792.218079,798.240356 791.957092,781.103210 
	C791.817017,771.902344 784.340332,764.672485 775.419861,764.221741 
	C766.763184,763.784363 758.482971,770.096375 757.486877,778.975708 
	C756.772888,785.341187 757.519958,791.870605 758.006226,799.044189 
M409.902924,690.500000 
	C409.910065,698.666382 409.814117,706.834473 409.953796,714.998596 
	C410.090118,722.969055 414.917053,729.537048 421.940094,731.719116 
	C428.740875,733.832153 436.609131,731.455933 440.883972,725.998108 
	C445.695129,719.855530 446.546814,709.835876 442.671387,703.992004 
	C436.316864,694.410095 429.898132,684.870850 423.537903,675.292664 
	C422.585388,673.858215 421.803558,672.310425 420.348053,669.781982 
	C429.218811,669.781982 436.927277,669.781982 444.529144,669.781982 
	C445.752411,657.668945 439.105743,648.600525 429.117828,647.946350 
	C417.556915,647.189270 409.986938,654.675598 409.913818,667.000854 
	C409.869324,674.500366 409.903778,682.000244 409.902924,690.500000 
M757.393860,707.473206 
	C757.337585,710.624512 756.927124,713.817322 757.291199,716.919312 
	C758.404907,726.407410 766.135010,732.813110 775.563904,732.387695 
	C784.606445,731.979736 791.868591,724.836731 791.987000,715.513794 
	C792.200500,698.697327 792.235413,681.873169 791.970398,665.058105 
	C791.796143,654.000061 782.844055,646.687744 771.862549,648.005798 
	C762.122070,649.174927 755.638916,658.939270 757.832825,670.100342 
	C765.492798,670.100342 773.317993,670.100342 782.060059,670.100342 
	C773.540833,682.949341 765.651367,694.848389 757.393860,707.473206 
M494.098114,745.511292 
	C493.565094,749.973083 493.013000,754.432739 492.503143,758.897217 
	C491.484528,767.816345 490.226990,776.722046 489.674927,785.670715 
	C489.542969,787.809937 491.298309,791.216309 493.085297,792.007263 
	C494.960754,792.837402 499.011353,792.052979 500.177246,790.511414 
	C502.743805,787.117859 505.255005,782.942139 505.745117,778.841248 
	C508.470093,756.042236 510.598145,733.171570 512.897949,710.322144 
	C513.564453,703.700256 514.480469,697.070862 514.543335,690.437988 
	C514.565979,688.045349 512.679016,683.831238 511.212036,683.622681 
	C508.578583,683.248169 505.298828,684.823547 502.880951,686.459106 
	C501.322754,687.513062 500.446320,690.032227 499.927399,692.064087 
	C499.026520,695.591431 498.434326,699.229553 498.072998,702.857056 
	C496.687408,716.766357 495.445068,730.689941 494.098114,745.511292 
z"/>
<path fill="#F3E1D5" opacity="1.000000" stroke="none" 
	d="
M511.000000,1026.000000 
	C405.527313,1025.999878 300.554626,1026.004639 195.581924,1025.993286 
	C183.915009,1025.992065 176.066269,1018.967773 176.008560,1008.588257 
	C175.957993,999.491516 182.813980,991.883057 191.875244,991.077576 
	C193.860687,990.901001 195.871307,990.987000 197.870331,990.987000 
	C466.633759,990.983887 735.397156,990.983948 1004.160583,990.986023 
	C1005.993225,990.986023 1007.832275,990.922058 1009.657410,991.046814 
	C1018.809753,991.673035 1025.866821,999.077759 1025.986328,1008.117004 
	C1026.110229,1017.481445 1019.202576,1025.149902 1009.867188,1025.921265 
	C1007.880127,1026.085571 1005.870789,1025.997559 1003.871704,1025.997559 
	C839.747803,1026.000244 675.623901,1026.000000 511.000000,1026.000000 
z"/>
<path fill="#F3E1D4" opacity="1.000000" stroke="none" 
	d="
M279.000000,959.139587 
	C250.174347,959.133118 221.848602,959.159668 193.523071,959.098633 
	C185.698181,959.081726 180.204437,955.208191 177.198029,948.077454 
	C174.461655,941.587280 175.839737,933.635376 181.408386,929.380310 
	C184.896179,926.715271 189.587509,925.112610 193.975357,924.280701 
	C198.478165,923.426880 203.268906,924.091858 207.933640,924.091858 
	C473.195557,924.091919 738.457458,924.089966 1003.719360,924.117126 
	C1006.699646,924.117432 1009.768433,924.110352 1012.643494,924.770630 
	C1021.184387,926.731934 1026.767212,934.776306 1025.918945,943.394897 
	C1025.059448,952.129089 1018.154358,958.676697 1009.302246,959.084229 
	C1006.973999,959.191467 1004.637817,959.137695 1002.305237,959.137695 
	C761.370178,959.139587 520.435059,959.139526 279.000000,959.139587 
z"/>
<path fill="#F0924F" opacity="1.000000" stroke="none" 
	d="
M643.967773,738.970703 
	C642.932495,754.740845 642.342346,770.067993 640.757446,785.291504 
	C639.326538,799.036682 634.778870,811.672913 622.932678,820.268188 
	C613.499146,827.112915 603.478882,827.648743 593.455200,821.794617 
	C591.062561,820.397278 588.829468,817.765442 587.869324,815.197998 
	C587.171448,813.331787 588.002319,809.978333 589.417419,808.499207 
	C590.789124,807.065552 593.764648,806.819031 596.059753,806.738953 
	C597.580627,806.685852 599.149414,807.830688 600.686890,808.463196 
	C608.050659,811.492554 613.540466,810.544922 617.752869,803.996765 
	C620.639404,799.509644 622.153381,794.070679 623.857544,788.917175 
	C624.908569,785.738708 623.437439,783.789612 619.788574,784.046509 
	C618.462646,784.139832 617.126160,784.081360 615.794617,784.099548 
	C596.637146,784.361389 585.699646,771.930542 588.370300,752.929382 
	C591.664856,729.489624 611.951660,715.704956 635.268188,721.062927 
	C642.662231,722.762024 643.927673,724.310303 644.065735,731.989136 
	C644.104614,734.152405 644.011963,736.317993 643.967773,738.970703 
M626.890930,760.050293 
	C626.991882,753.086853 627.239990,746.119751 627.068115,739.163086 
	C627.034241,737.790894 625.452454,735.376892 624.463379,735.312805 
	C621.604675,735.127686 618.109436,735.010620 615.892212,736.450256 
	C608.222656,741.430176 603.817932,748.723816 603.785828,758.088318 
	C603.762451,764.932556 608.577637,769.205872 616.595886,769.977112 
	C623.395752,770.631165 624.993164,769.213623 626.890930,760.050293 
z"/>
<path fill="#F09350" opacity="1.000000" stroke="none" 
	d="
M618.660645,591.000000 
	C618.648010,600.493164 618.793945,609.490234 618.575745,618.478394 
	C618.386475,626.273010 614.946716,632.338806 607.562073,635.452393 
	C601.185852,638.140808 595.123596,637.010986 589.762512,632.668518 
	C585.145630,628.928833 583.427551,623.757690 583.392883,618.053894 
	C583.296570,602.232910 583.192322,586.408630 583.412537,570.590210 
	C583.561584,559.878906 590.797180,552.277283 600.431152,552.018066 
	C610.336121,551.751526 617.940857,559.093689 618.540344,570.019592 
	C618.913879,576.828125 618.642822,583.671997 618.660645,591.000000 
z"/>
<path fill="#F09350" opacity="1.000000" stroke="none" 
	d="
M593.419922,437.196198 
	C606.430786,432.600159 617.775879,439.244995 618.342834,452.558441 
	C619.064026,469.493500 618.897522,486.495667 618.352234,503.444427 
	C618.022156,513.701416 610.497314,520.153503 600.800354,520.107910 
	C591.385498,520.063660 583.981812,513.640259 583.660950,503.578796 
	C583.115112,486.463562 583.326294,469.316345 583.570801,452.187622 
	C583.665283,445.567719 587.200256,440.570312 593.419922,437.196198 
z"/>
<path fill="#F0924F" opacity="1.000000" stroke="none" 
	d="
M291.276245,797.000183 
	C291.274445,808.322998 291.350616,819.146606 291.248810,829.968567 
	C291.141144,841.412537 284.151276,848.962158 273.854004,848.982788 
	C263.639832,849.003235 256.398621,841.404297 256.273315,830.019470 
	C256.101074,814.369812 256.118042,798.715881 256.267090,783.065735 
	C256.371582,772.096069 264.097443,764.091675 274.054993,764.205139 
	C283.854248,764.316833 291.052917,772.152344 291.253693,783.013428 
	C291.336761,787.507629 291.272980,792.004578 291.276245,797.000183 
z"/>
<path fill="#F0924E" opacity="1.000000" stroke="none" 
	d="
M513.263550,632.824585 
	C508.709351,628.831604 506.819153,624.076233 506.835175,618.416626 
	C506.880493,602.419800 506.782379,586.422363 506.872192,570.425903 
	C506.930817,559.984985 514.268311,552.184387 523.920105,552.017700 
	C533.564026,551.851135 541.408630,559.366150 541.768494,569.795044 
	C542.118835,579.947937 541.868530,590.121704 541.874756,600.286316 
	C541.878418,606.285156 541.964539,612.286011 541.839417,618.282349 
	C541.685120,625.676636 538.688354,631.579590 531.881714,634.932739 
	C525.482971,638.084839 519.287781,637.325867 513.263550,632.824585 
z"/>
<path fill="#F0924E" opacity="1.000000" stroke="none" 
	d="
M868.947388,788.057312 
	C868.941772,802.700867 869.056763,816.855530 868.882141,831.006592 
	C868.787720,838.654480 865.231934,844.543762 858.115295,847.600952 
	C851.613892,850.393921 845.340942,849.357422 839.933533,844.678284 
	C835.803406,841.104309 833.908508,836.445862 833.918701,830.962280 
	C833.948975,814.644592 833.837097,798.326111 833.962036,782.009277 
	C834.036804,772.243896 841.299866,764.670593 850.624573,764.222595 
	C859.830139,763.780334 867.774536,770.877625 868.795837,780.580811 
	C869.038818,782.889282 868.906921,785.237122 868.947388,788.057312 
z"/>
<path fill="#F0914E" opacity="1.000000" stroke="none" 
	d="
M368.081848,828.849365 
	C368.424530,837.413330 365.331329,843.727173 357.962280,847.306885 
	C351.775726,850.312256 345.622864,849.601135 340.081573,845.420044 
	C335.378326,841.871460 333.122681,836.932678 333.090240,831.137268 
	C332.998077,814.651672 332.896210,798.162781 333.128326,781.679810 
	C333.267975,771.760986 341.229919,764.148987 350.698425,764.204956 
	C360.155640,764.260864 367.894714,771.939697 368.014954,781.911255 
	C368.201691,797.396179 368.075592,812.884827 368.081848,828.849365 
z"/>
<path fill="#F0924E" opacity="1.000000" stroke="none" 
	d="
M695.151855,615.891357 
	C695.487610,622.279602 694.239258,627.685120 689.758850,631.858521 
	C684.556458,636.704468 678.399109,638.180542 671.732056,635.683716 
	C664.456604,632.958984 660.413757,627.259338 660.273743,619.625244 
	C659.965515,602.820068 659.943970,586.001343 660.252991,569.196350 
	C660.435242,559.286743 668.580566,551.852173 678.079285,552.017578 
	C687.306458,552.178345 694.925171,559.729858 695.065002,569.470154 
	C695.284790,584.780273 695.141724,600.095581 695.151855,615.891357 
z"/>
<path fill="#F0924F" opacity="1.000000" stroke="none" 
	d="
M943.859985,774.455322 
	C944.588074,777.735413 945.625977,780.653931 945.658203,783.583618 
	C945.826721,798.911926 945.881775,814.244812 945.697266,829.572693 
	C945.550537,841.764343 937.901428,849.480896 926.980774,848.956665 
	C918.813354,848.564514 911.218994,842.003601 911.037659,833.837830 
	C910.634644,815.687134 910.699219,797.518250 910.997925,779.363770 
	C911.110962,772.495972 917.212646,766.317322 924.094421,764.694641 
	C932.057312,762.816895 938.612793,765.960449 943.859985,774.455322 
z"/>
<path fill="#F0914E" opacity="1.000000" stroke="none" 
	d="
M363.685181,726.622437 
	C357.780090,732.603760 350.939758,733.961365 343.737579,731.012634 
	C336.155762,727.908508 333.037720,721.481750 333.043549,713.435486 
	C333.054871,697.804260 332.980347,682.172668 333.069672,666.541931 
	C333.133331,655.402100 340.431305,647.829895 350.791534,647.890381 
	C360.901337,647.949402 367.972076,655.419006 368.046661,666.447754 
	C368.153503,682.244507 368.359070,698.051147 367.884796,713.834351 
	C367.758453,718.039307 365.306396,722.174316 363.685181,726.622437 
z"/>
<path fill="#F0924E" opacity="1.000000" stroke="none" 
	d="
M267.363953,648.974365 
	C280.854584,645.308411 291.042664,652.637634 291.210846,666.083008 
	C291.412964,682.243774 291.376434,698.410339 291.202759,714.571838 
	C291.092651,724.820496 284.237671,731.989990 274.705811,732.389648 
	C265.020325,732.795715 256.999939,726.441284 256.620453,716.279114 
	C255.968185,698.811951 256.149261,681.299377 256.503296,663.816406 
	C256.641266,657.002808 260.753204,652.065247 267.363953,648.974365 
z"/>
<path fill="#F0924E" opacity="1.000000" stroke="none" 
	d="
M662.066956,445.280609 
	C667.325928,436.995026 674.327087,433.986053 682.635193,436.167572 
	C690.084961,438.123718 695.072083,445.093567 695.118652,454.036469 
	C695.202087,470.034027 695.237793,486.033112 695.106018,502.030029 
	C695.017700,512.753296 687.904724,520.049255 677.879822,520.105164 
	C667.906799,520.160767 660.372803,512.915344 660.212341,502.351990 
	C659.961731,485.858032 660.080750,469.356750 660.232422,452.860291 
	C660.254639,450.443481 661.319763,448.036194 662.066956,445.280609 
z"/>
<path fill="#F0924E" opacity="1.000000" stroke="none" 
	d="
M920.054443,649.746094 
	C932.915283,644.638489 944.633423,650.982361 945.311951,664.352417 
	C946.188782,681.628418 945.988281,699.000488 945.337585,716.296814 
	C944.957642,726.394653 936.835327,732.792908 927.205322,732.384949 
	C917.649109,731.980103 910.889709,724.853149 910.789429,714.543213 
	C910.630493,698.216003 910.735718,681.886108 910.748962,665.557373 
	C910.754578,658.651123 913.638611,653.369751 920.054443,649.746094 
z"/>
<path fill="#F0924E" opacity="1.000000" stroke="none" 
	d="
M506.843719,488.999115 
	C506.845703,477.014954 506.782898,465.530060 506.868652,454.046326 
	C506.949646,443.202606 513.754517,435.878387 523.722473,435.699310 
	C533.954224,435.515503 541.585449,442.707428 541.776001,453.549225 
	C542.062500,469.855103 542.072815,486.174011 541.765930,502.479218 
	C541.564270,513.193848 533.785034,520.324097 523.490662,520.096252 
	C513.830933,519.882507 507.073822,512.553101 506.867523,501.981659 
	C506.786316,497.822144 506.847504,493.659912 506.843719,488.999115 
z"/>
<path fill="#F0914E" opacity="1.000000" stroke="none" 
	d="
M864.953857,725.899292 
	C858.738892,732.157593 851.354065,734.126526 844.763367,731.205872 
	C837.242920,727.873291 833.875244,721.845520 833.903442,713.696228 
	C833.958313,697.863525 833.855896,682.030151 833.944153,666.197754 
	C834.004272,655.422424 840.976990,648.031006 850.949097,647.895996 
	C860.950134,647.760559 868.634521,654.913208 868.830139,665.434326 
	C869.136719,681.927917 869.129883,698.436340 868.744385,714.926575 
	C868.660522,718.510254 866.415771,722.043457 864.953857,725.899292 
z"/>
<path fill="#F09250" opacity="1.000000" stroke="none" 
	d="
M710.712585,735.466675 
	C716.482056,754.066895 710.337585,770.459778 694.670654,778.410461 
	C682.372131,784.651733 670.603638,782.560730 659.993896,774.643311 
	C650.841858,767.813660 650.082153,757.658325 652.030762,747.472839 
	C655.404297,729.838379 669.892090,712.914551 692.749817,719.017090 
	C701.396545,721.325623 707.181213,726.913025 710.712585,735.466675 
M677.189819,766.836121 
	C686.210083,767.540710 692.717712,763.811768 695.944824,756.089355 
	C698.784119,749.294922 696.962158,740.644104 691.680603,735.843018 
	C686.082520,730.754272 679.074463,730.612305 674.623352,736.528320 
	C671.536621,740.631042 669.180359,745.680420 667.918335,750.666443 
	C666.012085,758.197937 669.224304,763.267700 677.189819,766.836121 
z"/>
<path fill="#F0924F" opacity="1.000000" stroke="none" 
	d="
M520.906006,745.136719 
	C524.740845,732.962891 530.947571,722.883057 543.334595,719.193298 
	C554.216736,715.951782 565.066223,717.328125 573.293274,726.163452 
	C581.678650,735.168823 583.471863,746.334229 580.280762,757.835144 
	C574.615906,778.251343 552.439026,787.416809 533.560242,777.939148 
	C524.527588,773.404419 520.273254,766.204468 520.017639,756.440063 
	C519.922791,752.816956 520.524414,749.175598 520.906006,745.136719 
M558.890381,763.497803 
	C566.837280,755.703674 568.076904,745.890076 562.120667,737.924988 
	C556.582031,730.518372 547.918579,730.064392 542.304932,737.351501 
	C539.834229,740.558716 538.032349,744.495667 536.778625,748.376526 
	C534.798218,754.506897 535.734741,760.332825 541.135437,764.612000 
	C545.726196,768.249512 552.081421,767.904419 558.890381,763.497803 
z"/>
<path fill="#F0924F" opacity="1.000000" stroke="none" 
	d="
M438.682495,835.146851 
	C440.588623,835.246521 442.038422,835.345764 443.497314,835.445679 
	C442.860718,841.659424 438.720001,846.318115 432.378510,848.257019 
	C425.695984,850.300232 417.861725,848.280212 414.047119,842.577087 
	C411.934021,839.417847 410.209717,835.323486 410.115845,831.604980 
	C409.695587,814.955383 409.818604,798.288452 409.959930,781.629639 
	C410.040131,772.175781 417.373535,764.667603 426.485565,764.221497 
	C435.580780,763.776306 443.735229,770.463379 444.652740,779.958008 
	C445.595551,789.714172 445.885040,799.249268 438.649231,807.719299 
	C432.847900,814.510132 428.486542,822.533325 423.515198,830.028809 
	C422.635437,831.355286 421.897949,832.776062 420.515625,835.146423 
	C427.073486,835.146423 432.649811,835.146423 438.682495,835.146851 
z"/>
<path fill="#F0924F" opacity="1.000000" stroke="none" 
	d="
M757.810669,798.685547 
	C757.519958,791.870605 756.772888,785.341187 757.486877,778.975708 
	C758.482971,770.096375 766.763184,763.784363 775.419861,764.221741 
	C784.340332,764.672485 791.817017,771.902344 791.957092,781.103210 
	C792.218079,798.240356 792.187744,815.386841 791.940796,832.524658 
	C791.823608,840.652405 785.375732,847.516479 777.569336,848.803650 
	C769.526794,850.129761 761.572327,845.719177 758.605408,838.244263 
	C758.321533,837.529175 758.299255,836.710266 758.019775,835.211914 
	C765.817261,835.211914 773.188049,835.211914 782.107056,835.211914 
	C773.552490,822.374207 765.779358,810.709167 757.810669,798.685547 
z"/>
<path fill="#F0924E" opacity="1.000000" stroke="none" 
	d="
M409.902863,690.000000 
	C409.903778,682.000244 409.869324,674.500366 409.913818,667.000854 
	C409.986938,654.675598 417.556915,647.189270 429.117828,647.946350 
	C439.105743,648.600525 445.752411,657.668945 444.529144,669.781982 
	C436.927277,669.781982 429.218811,669.781982 420.348053,669.781982 
	C421.803558,672.310425 422.585388,673.858215 423.537903,675.292664 
	C429.898132,684.870850 436.316864,694.410095 442.671387,703.992004 
	C446.546814,709.835876 445.695129,719.855530 440.883972,725.998108 
	C436.609131,731.455933 428.740875,733.832153 421.940094,731.719116 
	C414.917053,729.537048 410.090118,722.969055 409.953796,714.998596 
	C409.814117,706.834473 409.910065,698.666382 409.902863,690.000000 
z"/>
<path fill="#F0924E" opacity="1.000000" stroke="none" 
	d="
M757.577881,707.110352 
	C765.651367,694.848389 773.540833,682.949341 782.060059,670.100342 
	C773.317993,670.100342 765.492798,670.100342 757.832825,670.100342 
	C755.638916,658.939270 762.122070,649.174927 771.862549,648.005798 
	C782.844055,646.687744 791.796143,654.000061 791.970398,665.058105 
	C792.235413,681.873169 792.200500,698.697327 791.987000,715.513794 
	C791.868591,724.836731 784.606445,731.979736 775.563904,732.387695 
	C766.135010,732.813110 758.404907,726.407410 757.291199,716.919312 
	C756.927124,713.817322 757.337585,710.624512 757.577881,707.110352 
z"/>
<path fill="#F09350" opacity="1.000000" stroke="none" 
	d="
M494.123718,745.059692 
	C495.445068,730.689941 496.687408,716.766357 498.072998,702.857056 
	C498.434326,699.229553 499.026520,695.591431 499.927399,692.064087 
	C500.446320,690.032227 501.322754,687.513062 502.880951,686.459106 
	C505.298828,684.823547 508.578583,683.248169 511.212036,683.622681 
	C512.679016,683.831238 514.565979,688.045349 514.543335,690.437988 
	C514.480469,697.070862 513.564453,703.700256 512.897949,710.322144 
	C510.598145,733.171570 508.470093,756.042236 505.745117,778.841248 
	C505.255005,782.942139 502.743805,787.117859 500.177246,790.511414 
	C499.011353,792.052979 494.960754,792.837402 493.085297,792.007263 
	C491.298309,791.216309 489.542969,787.809937 489.674927,785.670715 
	C490.226990,776.722046 491.484528,767.816345 492.503143,758.897217 
	C493.013000,754.432739 493.565094,749.973083 494.123718,745.059692 
z"/>
<path fill="#F3E0D3" opacity="1.000000" stroke="none" 
	d="
M626.844971,760.486694 
	C624.993164,769.213623 623.395752,770.631165 616.595886,769.977112 
	C608.577637,769.205872 603.762451,764.932556 603.785828,758.088318 
	C603.817932,748.723816 608.222656,741.430176 615.892212,736.450256 
	C618.109436,735.010620 621.604675,735.127686 624.463379,735.312805 
	C625.452454,735.376892 627.034241,737.790894 627.068115,739.163086 
	C627.239990,746.119751 626.991882,753.086853 626.844971,760.486694 
z"/>
<path fill="#F3E0D3" opacity="1.000000" stroke="none" 
	d="
M676.802979,766.708008 
	C669.224304,763.267700 666.012085,758.197937 667.918335,750.666443 
	C669.180359,745.680420 671.536621,740.631042 674.623352,736.528320 
	C679.074463,730.612305 686.082520,730.754272 691.680603,735.843018 
	C696.962158,740.644104 698.784119,749.294922 695.944824,756.089355 
	C692.717712,763.811768 686.210083,767.540710 676.802979,766.708008 
z"/>
<path fill="#F3E0D3" opacity="1.000000" stroke="none" 
	d="
M558.599609,763.726196 
	C552.081421,767.904419 545.726196,768.249512 541.135437,764.612000 
	C535.734741,760.332825 534.798218,754.506897 536.778625,748.376526 
	C538.032349,744.495667 539.834229,740.558716 542.304932,737.351501 
	C547.918579,730.064392 556.582031,730.518372 562.120667,737.924988 
	C568.076904,745.890076 566.837280,755.703674 558.599609,763.726196 
z"/>
</svg>